<svg width="9" height="7" viewBox="0 0 9 7" fill="none" xmlns="http://www.w3.org/2000/svg">
<g opacity="0.99" clip-path="url(#clip0_0_29)">
<g clip-path="url(#clip1_0_29)">
<g clip-path="url(#clip2_0_29)">
<path d="M7.33194 1.14658L4.35924 4.30468L1.36494 1.16728C1.292 1.09045 1.20414 1.02933 1.10673 0.987678C1.00933 0.946025 0.904444 0.924713 0.798509 0.92505C0.692574 0.925387 0.587826 0.947366 0.49069 0.989639C0.393554 1.03191 0.306081 1.09359 0.233636 1.17088C-0.0741643 1.49758 -0.0723643 1.93228 0.237236 2.25628L3.85164 6.04258C3.92458 6.11955 4.0125 6.18079 4.10999 6.22252C4.20747 6.26426 4.31247 6.28562 4.41851 6.28528C4.52456 6.28494 4.62941 6.26292 4.72663 6.22056C4.82385 6.17821 4.91138 6.11641 4.98384 6.03898L8.46864 2.33638C8.61689 2.1728 8.69871 1.95974 8.69804 1.73898C8.69737 1.51821 8.61428 1.30566 8.46504 1.14298C8.39209 1.06601 8.30417 1.00477 8.20668 0.96303C8.1092 0.921292 8.0042 0.899935 7.89816 0.900272C7.79211 0.90061 7.68726 0.922634 7.59004 0.964991C7.49282 1.00735 7.40439 1.06914 7.33194 1.14658Z" fill="#233046"/>
</g>
</g>
</g>
<defs>
<clipPath id="clip0_0_29">
<rect width="9" height="6.3" fill="white"/>
</clipPath>
<clipPath id="clip1_0_29">
<rect width="9" height="6.3" fill="white"/>
</clipPath>
<clipPath id="clip2_0_29">
<rect width="9" height="6.3" fill="white"/>
</clipPath>
</defs>
</svg>
