<svg width="150" height="28" viewBox="0 0 150 28" fill="none" xmlns="http://www.w3.org/2000/svg">
<g opacity="0.99" clip-path="url(#clip0_0_508)">
<g clip-path="url(#clip1_0_508)">
<g clip-path="url(#clip2_0_508)">
<mask id="mask0_0_508" style="mask-type:luminance" maskUnits="userSpaceOnUse" x="0" y="0" width="150" height="28">
<path d="M0.00878906 0H149.137V27.08H0.00878906V0Z" fill="white"/>
</mask>
<g mask="url(#mask0_0_508)">
<path d="M38.013 20.7895C36.9347 20.1729 36.0615 19.2584 35.3936 18.0461C34.7256 16.8337 34.3916 15.394 34.3916 13.7268C34.3916 12.0597 34.7256 10.6251 35.3936 9.42319C36.0608 8.22195 36.934 7.31269 38.013 6.6954C39.0527 6.08785 40.2355 5.76858 41.4397 5.77052C42.6468 5.77052 43.654 6.00799 44.5268 6.48397C45.3739 6.93405 46.0584 7.63859 46.4839 8.49831L46.839 6.09548H50.3313V21.3582H46.7099L46.4505 19.0199C46.0193 19.8643 45.3673 20.5246 44.4945 21.0009C43.621 21.4773 42.6027 21.7154 41.4397 21.7154C40.2362 21.7103 39.055 21.3918 38.013 20.7895ZM45.2392 16.9577C46.0044 16.1897 46.387 15.1128 46.387 13.7268C46.387 12.838 46.1985 12.0638 45.8214 11.4042C45.4444 10.7446 44.9597 10.2415 44.3675 9.89501C43.8059 9.55839 43.1641 9.37922 42.5094 9.37632C41.3442 9.37632 40.3742 9.77662 39.5993 10.5772C38.823 11.3792 38.4349 12.4294 38.4349 13.7279C38.4349 15.0256 38.8223 16.1099 39.5993 16.9098C40.3749 17.7104 41.3449 18.1107 42.5094 18.1107C43.5648 18.1107 44.4754 17.7263 45.2413 16.9577H45.2392ZM60.1134 21.0186C59.2848 20.5554 58.5973 19.8762 58.1241 19.0533V27.0804H54.0506V6.09548H57.6721L58.0262 8.59517C58.5011 7.68625 59.1642 6.98842 60.0155 6.50168C60.8668 6.01354 61.8528 5.76982 62.9735 5.77052C64.1803 5.77052 65.3173 6.07881 66.3845 6.6954C67.4511 7.31338 68.3131 8.22299 68.9707 9.42423C69.6282 10.6255 69.957 12.0593 69.957 13.7258C69.957 15.3929 69.6282 16.833 68.9707 18.0461C68.3131 19.2591 67.4514 20.1736 66.3856 20.7895C65.3517 21.3972 64.1738 21.7166 62.9745 21.7144C61.8969 21.7144 60.9432 21.4818 60.1134 21.0166M64.8004 16.9233C65.544 16.1338 65.9155 15.068 65.9148 13.7258C65.9148 12.3822 65.5388 11.3761 64.7847 10.5751C64.0293 9.77454 63.0808 9.37424 61.9393 9.37424C61.2935 9.37424 60.679 9.54193 60.0957 9.8773C59.5132 10.2134 59.0337 10.7112 58.6574 11.3709C58.2796 12.0305 58.0908 12.8151 58.0908 13.7247C58.0908 15.1322 58.4678 16.2147 59.2219 16.9723C59.9766 17.7305 60.8821 18.1093 61.9382 18.1086C63.102 18.1086 64.056 17.7135 64.8004 16.9233ZM78.5112 21.0186C77.6825 20.5554 76.995 19.8762 76.5218 19.0533V27.0804H72.4484V6.09548H76.0698L76.4239 8.59517C76.8989 7.68625 77.562 6.98842 78.4133 6.50168C79.2645 6.01354 80.2505 5.76982 81.3712 5.77052C82.578 5.77052 83.715 6.07881 84.7823 6.6954C85.8488 7.31338 86.7109 8.22299 87.3684 9.42423C88.026 10.6255 88.3547 12.0593 88.3547 13.7258C88.3547 15.3929 88.026 16.833 87.3684 18.0461C86.7109 19.2591 85.8488 20.174 84.7823 20.7905C83.7484 21.3982 82.5705 21.7176 81.3712 21.7154C80.2943 21.7154 79.3406 21.4828 78.5101 21.0176M83.1971 16.9244C83.9414 16.1349 84.3132 15.069 84.3125 13.7268C84.3125 12.3832 83.9355 11.3771 83.1814 10.5762C82.426 9.77558 81.4775 9.37528 80.3359 9.37528C79.6902 9.37528 79.0757 9.54297 78.4924 9.87834C77.9105 10.2144 77.4311 10.7123 77.0541 11.3719C76.677 12.0316 76.4882 12.8162 76.4875 13.7258C76.4875 15.1333 76.8645 16.2158 77.6186 16.9733C78.3733 17.7315 79.2788 18.1103 80.3349 18.1096C81.4986 18.1096 82.4527 17.7145 83.1971 16.9244ZM92.0574 7.62133C93.2101 6.38745 94.8536 5.77052 96.9881 5.77052C98.3025 5.77052 99.3857 6.06284 100.238 6.64749C101.089 7.23145 101.698 7.85915 102.065 8.53059H102.129C102.495 7.85984 103.109 7.23214 103.972 6.64749C104.834 6.06284 105.922 5.77052 107.237 5.77052C109.371 5.77052 111.014 6.38745 112.168 7.62133C113.321 8.8559 113.897 10.5449 113.897 12.6884V21.3582H109.792V13.0123C109.792 11.8646 109.555 10.9713 109.08 10.3325C108.607 9.69434 107.907 9.37493 106.98 9.37424C106.053 9.37493 105.352 9.69434 104.878 10.3325C104.403 10.9713 104.166 11.8646 104.166 13.0123V21.3582H100.061V13.0123C100.061 11.8646 99.8235 10.9713 99.3492 10.3325C98.8743 9.69434 98.174 9.37493 97.2484 9.37424C96.3215 9.37493 95.6209 9.69434 95.1466 10.3325C94.6724 10.9713 94.4353 11.8646 94.4353 13.0123V21.3582H90.3306V12.6884C90.3306 10.5442 90.9069 8.85521 92.0595 7.62133H92.0574ZM119.488 20.7895C118.411 20.1729 117.538 19.2584 116.869 18.0461C116.201 16.8337 115.867 15.394 115.867 13.7268C115.867 12.0597 116.201 10.6251 116.869 9.42319C117.537 8.22126 118.41 7.31199 119.488 6.6954C120.528 6.08785 121.711 5.76858 122.915 5.77052C124.123 5.77052 125.129 6.00799 126.003 6.48397C126.85 6.93422 127.534 7.63875 127.959 8.49831L128.315 6.09548H131.807V21.3582H128.186L127.927 19.0199C127.496 19.8643 126.844 20.5246 125.971 21.0009C125.097 21.4773 124.079 21.7154 122.915 21.7154C121.712 21.7103 120.53 21.3918 119.488 20.7895ZM126.715 16.9577C127.48 16.1897 127.862 15.1128 127.862 13.7268C127.862 12.838 127.674 12.0638 127.297 11.4042C126.92 10.7446 126.435 10.2411 125.842 9.89397C125.28 9.55717 124.638 9.37799 123.983 9.37528C122.819 9.37528 121.849 9.77558 121.073 10.5762C120.297 11.3782 119.909 12.4284 119.909 13.7268C119.909 15.0246 120.297 16.1088 121.073 16.9087C121.849 17.7093 122.819 18.1096 123.983 18.1096C125.039 18.1096 125.95 17.7253 126.716 16.9566L126.715 16.9577ZM141.284 15.8047L138.374 21.3592H133.427L138.471 13.4675L133.427 6.09548H138.374L141.284 11.2917L144.161 6.09443H149.141L144.097 13.4675L149.141 21.3582H144.161L141.284 15.8047Z" fill="#281E49"/>
<path d="M5.63966 3.034V6.15862H17.8017C19.4692 6.15862 20.8222 7.51782 20.8222 9.19366V21.4078H23.9343C25.6018 21.4078 26.9547 20.0496 26.9547 18.3738V3.034C26.9557 2.63635 26.8783 2.24241 26.7269 1.87469C26.5756 1.50697 26.3533 1.17268 26.0727 0.890921C25.7921 0.60916 25.4587 0.385454 25.0916 0.232585C24.7245 0.0797169 24.3309 0.000683032 23.9332 0L8.66012 0C8.26256 0.000819689 7.86905 0.0799544 7.50208 0.232884C7.13511 0.385813 6.80186 0.609541 6.52137 0.891288C6.24088 1.17304 6.01865 1.50728 5.86736 1.87493C5.71607 2.24259 5.6387 2.63644 5.63966 3.034Z" fill="#9B6AFA"/>
<path d="M10.2346 20.8415C10.0565 21.0211 9.84449 21.1637 9.61093 21.261C9.37738 21.3583 9.12687 21.4084 8.87385 21.4084C8.62084 21.4084 8.37032 21.3583 8.13677 21.261C7.90321 21.1637 7.69124 21.0211 7.51308 20.8415L6.20387 19.527C5.84229 19.164 5.63928 18.6724 5.63928 18.16C5.63928 17.6476 5.84229 17.1561 6.20387 16.793L12.3125 10.6562H3.02926C2.22643 10.6582 1.45723 10.9789 0.890817 11.5478C0.3244 12.1168 0.0071385 12.8874 0.00879786 13.6903V24.0296C0.00783936 24.4272 0.0852132 24.821 0.2365 25.1887C0.387786 25.5563 0.610022 25.8906 0.890511 26.1723C1.171 26.4541 1.50425 26.6778 1.87122 26.8307C2.23819 26.9837 2.6317 27.0628 3.02926 27.0636H13.3228C14.9913 27.0636 16.3432 25.7054 16.3432 24.0296V14.7068L10.2346 20.8415Z" fill="#D7C3FE"/>
<path d="M6.20312 16.793L12.3128 10.6562H5.63965V18.1262L5.64173 18.1282C5.64902 17.6439 5.83442 17.1617 6.20312 16.793ZM16.3404 14.7068L10.2328 20.8415C10.0551 21.0206 9.84368 21.1629 9.61078 21.2601C9.37789 21.3573 9.12808 21.4076 8.87571 21.4081H16.3425L16.3404 14.7068Z" fill="#7252BF"/>
</g>
</g>
</g>
</g>
<defs>
<clipPath id="clip0_0_508">
<rect width="150" height="27.08" fill="white"/>
</clipPath>
<clipPath id="clip1_0_508">
<rect width="150" height="27.08" fill="white"/>
</clipPath>
<clipPath id="clip2_0_508">
<rect width="149.982" height="27.08" fill="white" transform="translate(0.00878906)"/>
</clipPath>
</defs>
</svg>
