<svg width="216" height="24" viewBox="0 0 216 24" fill="none" xmlns="http://www.w3.org/2000/svg">
<g opacity="0.99" clip-path="url(#clip0_9_18)">
<g clip-path="url(#clip1_9_18)">
<path d="M20.995 21H21V14.398C21 11.168 20.305 8.68 16.53 8.68C14.714 8.68 13.496 9.676 12.999 10.62H12.946V8.983H9.366V21H13.094V15.05C13.094 13.483 13.391 11.968 15.332 11.968C17.243 11.968 17.272 13.756 17.272 15.15V21H20.995ZM3.297 8.983H7.029V21H3.297V8.983ZM5.162 3C4.5886 3 4.03869 3.22778 3.63324 3.63324C3.22778 4.03869 3 4.5886 3 5.162C3 6.355 3.968 7.343 5.162 7.343C6.355 7.343 7.323 6.355 7.323 5.162C7.32273 4.58868 7.09487 4.03892 6.68947 3.63353C6.28408 3.22813 5.73432 3.00026 5.161 3H5.162Z" fill="#233046"/>
</g>
</g>
<g opacity="0.99" clip-path="url(#clip2_9_18)">
<g clip-path="url(#clip3_9_18)">
<path d="M79.3302 5.32116H81.1572V2.14116C80.2739 2.0444 79.3858 1.99766 78.4972 2.00116C75.8642 2.00016 74.0603 3.65516 74.0603 6.70016V9.50016H71.1562V13.0562H74.0612V22.0002H77.6233V13.0562H80.4102L80.8533 9.50116H77.6222V7.05216C77.6222 6.02516 77.8993 5.32216 79.3313 5.32216L79.3302 5.32116Z" fill="#233046"/>
</g>
</g>
<g opacity="0.99" clip-path="url(#clip4_9_18)">
<g clip-path="url(#clip5_9_18)">
<path d="M140.003 7.37891C138.778 7.37891 137.604 7.8655 136.737 8.73163C135.871 9.59777 135.385 10.7725 135.385 11.9974C135.385 13.2223 135.871 14.397 136.737 15.2632C137.604 16.1293 138.778 16.6159 140.003 16.6159C141.228 16.6159 142.403 16.1293 143.269 15.2632C144.135 14.397 144.622 13.2223 144.622 11.9974C144.622 10.7725 144.135 9.59777 143.269 8.73163C142.403 7.8655 141.228 7.37891 140.003 7.37891ZM140.003 14.9949C139.61 14.9949 139.22 14.9174 138.856 14.7667C138.492 14.6161 138.162 14.3953 137.884 14.117C137.605 13.8386 137.385 13.5082 137.234 13.1445C137.083 12.7808 137.006 12.391 137.006 11.9974C137.006 11.6038 137.083 11.214 137.234 10.8503C137.385 10.4866 137.605 10.1562 137.884 9.87785C138.162 9.59951 138.492 9.37872 138.856 9.22808C139.22 9.07744 139.61 8.99991 140.003 8.99991C140.798 8.99991 141.561 9.31571 142.123 9.87785C142.685 10.44 143.001 11.2024 143.001 11.9974C143.001 12.7924 142.685 13.5548 142.123 14.117C141.561 14.6791 140.798 14.9949 140.003 14.9949Z" fill="#233046"/>
<path d="M143.711 3.05724C142.055 2.98024 137.953 2.98424 136.296 3.05724C134.839 3.12524 133.555 3.47724 132.519 4.51324C130.788 6.24324 131.009 8.57624 131.009 11.9972C131.009 15.4982 130.814 17.7772 132.519 19.4812C134.257 21.2182 136.623 20.9912 140.003 20.9912C143.471 20.9912 144.668 20.9932 145.894 20.5182C147.562 19.8712 148.82 18.3812 148.944 15.7042C149.021 14.0472 149.017 9.94724 148.944 8.28924C148.794 5.12924 147.099 3.21324 143.711 3.05724ZM146.332 18.3362C145.198 19.4712 143.623 19.3702 139.982 19.3702C136.232 19.3702 134.728 19.4252 133.63 18.3252C132.367 17.0672 132.595 15.0472 132.595 11.9852C132.595 7.84124 132.17 4.85724 136.329 4.64424C137.284 4.61024 137.566 4.59924 139.971 4.59924L140.005 4.62224C144.001 4.62224 147.137 4.20324 147.325 8.36124C147.368 9.31024 147.378 9.59524 147.378 11.9962C147.378 15.7032 147.448 17.2162 146.332 18.3362Z" fill="#233046"/>
<path d="M144.805 8.27571C144.949 8.28011 145.093 8.25544 145.228 8.20317C145.363 8.1509 145.486 8.07209 145.59 7.97142C145.694 7.87074 145.776 7.75025 145.832 7.61709C145.889 7.48393 145.918 7.3408 145.918 7.19621C145.918 7.05162 145.889 6.9085 145.832 6.77533C145.776 6.64217 145.694 6.52168 145.59 6.42101C145.486 6.32033 145.363 6.24152 145.228 6.18925C145.093 6.13698 144.949 6.11231 144.805 6.11671C144.524 6.12525 144.258 6.24273 144.063 6.44424C143.867 6.64576 143.758 6.91547 143.758 7.19621C143.758 7.47695 143.867 7.74667 144.063 7.94818C144.258 8.14969 144.524 8.26717 144.805 8.27571Z" fill="#233046"/>
</g>
</g>
<g opacity="0.99" clip-path="url(#clip6_9_18)">
<g clip-path="url(#clip7_9_18)">
<g clip-path="url(#clip8_9_18)">
<path d="M211.08 3.36035H196.922C195.68 3.36365 194.491 3.85919 193.615 4.73825C192.738 5.61731 192.247 6.80809 192.247 8.04936V15.9416C192.246 17.183 192.738 18.3739 193.615 19.253C194.491 20.1322 195.68 20.6278 196.922 20.6311H211.08C212.321 20.6278 213.511 20.1322 214.387 19.253C215.263 18.3739 215.755 17.183 215.754 15.9416V8.04936C215.755 6.80809 215.263 5.61731 214.387 4.73825C213.51 3.85919 212.321 3.36365 211.08 3.36035ZM214.795 15.9421C214.796 16.929 214.405 17.8758 213.709 18.575C213.012 19.2742 212.067 19.6686 211.08 19.6716H196.922C195.935 19.6686 194.989 19.2742 194.293 18.575C193.596 17.8758 193.206 16.929 193.207 15.9421V8.04936C193.206 7.06248 193.596 6.1156 194.293 5.41643C194.989 4.71725 195.935 4.32289 196.922 4.31984H211.08C212.067 4.32289 213.012 4.71725 213.709 5.41643C214.405 6.1156 214.796 7.06248 214.795 8.04936V15.9421Z" fill="#233046" stroke="#233046" stroke-width="0.479743"/>
<path d="M208.252 11.8221L201.605 7.92895C201.532 7.88631 201.449 7.86365 201.365 7.86329C201.28 7.86292 201.197 7.88484 201.124 7.92685C201.051 7.96885 200.99 8.02945 200.947 8.10252C200.905 8.17558 200.883 8.25852 200.883 8.34297V16.1287C200.883 16.2128 200.905 16.2953 200.948 16.3681C200.99 16.4408 201.05 16.5012 201.123 16.5431C201.196 16.585 201.279 16.6071 201.363 16.607C201.447 16.6069 201.53 16.5848 201.602 16.5427L208.252 12.6506C208.324 12.6083 208.384 12.5478 208.426 12.4751C208.467 12.4025 208.489 12.3201 208.489 12.2363C208.489 12.1525 208.467 12.0702 208.426 11.9975C208.384 11.9248 208.324 11.8643 208.252 11.8221ZM201.842 15.2916V9.17964L207.06 12.2356L201.842 15.2916Z" fill="#233046" stroke="#233046" stroke-width="0.479743"/>
</g>
</g>
</g>
<defs>
<clipPath id="clip0_9_18">
<rect width="24" height="24" fill="white"/>
</clipPath>
<clipPath id="clip1_9_18">
<rect width="24" height="24" fill="white"/>
</clipPath>
<clipPath id="clip2_9_18">
<rect width="24" height="24" fill="white" transform="translate(64)"/>
</clipPath>
<clipPath id="clip3_9_18">
<rect width="24" height="24" fill="white" transform="translate(64)"/>
</clipPath>
<clipPath id="clip4_9_18">
<rect width="24" height="24" fill="white" transform="translate(128)"/>
</clipPath>
<clipPath id="clip5_9_18">
<rect width="24" height="24" fill="white" transform="translate(128)"/>
</clipPath>
<clipPath id="clip6_9_18">
<rect width="24" height="17.75" fill="white" transform="translate(192 3.12012)"/>
</clipPath>
<clipPath id="clip7_9_18">
<rect width="24" height="17.75" fill="white" transform="translate(192 3.12012)"/>
</clipPath>
<clipPath id="clip8_9_18">
<rect width="23.9871" height="17.75" fill="white" transform="translate(192.007 3.12012)"/>
</clipPath>
</defs>
</svg>
